HIERARCHY
ROOT Hips
{
	OFFSET 0.00000 0.00000 0.00000
	CHANNELS 6 Xposition Yposition Zposition Zrotation Yrotation Xrotation 
	JOINT LHipJoint
	{
		OFFSET 0 0 0
		CHANNELS 3 Zrotation Yrotation Xrotation
		JOINT LeftUpLeg
		{
			OFFSET 1.62964 -1.40469 0.78906
			CHANNELS 3 Zrotation Yrotation Xrotation
			JOINT LeftLeg
			{
				OFFSET 2.29640 -6.30932 0.00000
				CHANNELS 3 Zrotation Yrotation Xrotation
				JOINT LeftFoot
				{
					OFFSET 2.29451 -6.30412 0.00000
					CHANNELS 3 Zrotation Yrotation Xrotation
					JOINT LeftToeBase
					{
						OFFSET 0.03611 -0.09921 1.56387
						CHANNELS 3 Zrotation Yrotation Xrotation
						End Site
						{
							OFFSET 0.00000 -0.00000 0.80291
						}
					}
				}
			}
		}
	}
	JOINT RHipJoint
	{
		OFFSET 0 0 0
		CHANNELS 3 Zrotation Yrotation Xrotation
		JOINT RightUpLeg
		{
			OFFSET -1.73712 -1.40469 0.78906
			CHANNELS 3 Zrotation Yrotation Xrotation
			JOINT RightLeg
			{
				OFFSET -2.28137 -6.26801 0.00000
				CHANNELS 3 Zrotation Yrotation Xrotation
				JOINT RightFoot
				{
					OFFSET -2.28681 -6.28298 0.00000
					CHANNELS 3 Zrotation Yrotation Xrotation
					JOINT RightToeBase
					{
						OFFSET -0.15927 -0.43759 1.61103
						CHANNELS 3 Zrotation Yrotation Xrotation
						End Site
						{
							OFFSET -0.00000 -0.00000 0.84630
						}
					}
				}
			}
		}
	}
	JOINT LowerBack
	{
		OFFSET 0 0 0
		CHANNELS 3 Zrotation Yrotation Xrotation
		JOINT Spine
		{
			OFFSET -0.04227 2.04338 -0.00225
			CHANNELS 3 Zrotation Yrotation Xrotation
			JOINT Spine1
			{
				OFFSET -0.02148 2.04482 -0.04273
				CHANNELS 3 Zrotation Yrotation Xrotation
				JOINT Neck
				{
					OFFSET 0 0 0
					CHANNELS 3 Zrotation Yrotation Xrotation
					JOINT Neck1
					{
						OFFSET 0.09180 1.44629 0.19359
						CHANNELS 3 Zrotation Yrotation Xrotation
						JOINT Head
						{
							OFFSET 0.00887 1.40645 0.14750
							CHANNELS 3 Zrotation Yrotation Xrotation
							End Site
							{
								OFFSET -0.00669 1.50671 0.03707
							}
						}
					}
				}
				JOINT LeftShoulder
				{
					OFFSET 0 0 0
					CHANNELS 3 Zrotation Yrotation Xrotation
					JOINT LeftArm
					{
						OFFSET 2.17674 1.86763 -0.06520
						CHANNELS 3 Zrotation Yrotation Xrotation
						JOINT LeftForeArm
						{
							OFFSET 4.65776 -0.00000 0.00000
							CHANNELS 3 Zrotation Yrotation Xrotation
							JOINT LeftHand
							{
								OFFSET 3.55539 -0.00000 0.00000
								CHANNELS 3 Zrotation Yrotation Xrotation
								JOINT LeftFingerBase
								{
									OFFSET 0 0 0
									CHANNELS 3 Zrotation Yrotation Xrotation
									JOINT LeftHandIndex1
									{
										OFFSET 0.70726 -0.00000 0.00000
										CHANNELS 3 Zrotation Yrotation Xrotation
										End Site
										{
											OFFSET 0.57022 -0.00000 0.00000
										}
									}
								}
								JOINT LThumb
								{
									OFFSET 0 0 0
									CHANNELS 3 Zrotation Yrotation Xrotation
									End Site
									{
										OFFSET 0.57892 -0.00000 0.57892
									}
								}
							}
						}
					}
				}
				JOINT RightShoulder
				{
					OFFSET 0 0 0
					CHANNELS 3 Zrotation Yrotation Xrotation
					JOINT RightArm
					{
						OFFSET -2.80694 1.55459 -0.32496
						CHANNELS 3 Zrotation Yrotation Xrotation
						JOINT RightForeArm
						{
							OFFSET -4.71925 -0.00000 -0.00000
							CHANNELS 3 Zrotation Yrotation Xrotation
							JOINT RightHand
							{
								OFFSET -3.56990 -0.00000 0.00000
								CHANNELS 3 Zrotation Yrotation Xrotation
								JOINT RightFingerBase
								{
									OFFSET 0 0 0
									CHANNELS 3 Zrotation Yrotation Xrotation
									JOINT RightHandIndex1
									{
										OFFSET -0.50776 -0.00000 0.00000
										CHANNELS 3 Zrotation Yrotation Xrotation
										End Site
										{
											OFFSET -0.40937 -0.00000 0.00000
										}
									}
								}
								JOINT RThumb
								{
									OFFSET 0 0 0
									CHANNELS 3 Zrotation Yrotation Xrotation
									End Site
									{
										OFFSET -0.41562 -0.00000 0.41562
									}
								}
							}
						}
					}
				}
			}
		}
	}
}
MOTION
Frames: 11
Frame Time: .0083333
-1.2567 18.0054 20.8205 0 0 0 0 0 0 -21 0 0 0 0 0 0 0 0 0 0 0 0 0 0 21 0 0 0 0 0 0 0 0 0 0 0 0 0 0 0 0 0 0 0 0 0 0 -16 0 0 21 0 0 11 0 0 0 -8 0 0 0 0 0 0 0 0 0 0 0 0 0 0 0 0 0 0 0 0 8 0 0 0 0 0 0 0 0 0 0 0 0 0 0 0 0 0
-1.2567 18.0054 20.8205 177.7660 -1.7207 -154.5320 0.0000 0.0000 0.0000 -21.8632 -14.7570 -20.4346 0.1943 2.8386 7.8298 -0.0726 -8.0512 -3.9746 2.0982 -9.0677 -26.0075 0.0000 0.0000 0.0000 18.6434 13.1000 -21.5936 -0.2288 -3.0787 8.4981 -1.0765 1.7317 -19.1100 -1.9172 8.6915 -24.8351 -6.2340 -2.5074 -25.5182 0.1038 -2.0976 -1.9379 2.9075 -1.5475 12.3084 -1.8269 -3.5218 -0.7210 4.3573 -4.7545 4.2591 1.5994 -2.2897 1.6152 -0.0000 0.0000 0.0000 -83.7684 3.5035 6.5921 7.2571 -12.3416 -0.7857 -0.0000 -0.0000 15.2892 20.6200 -8.4375 -3.1601 -7.1250 0.0000 -0.0000 -4.5151 20.9861 2.6065 -0.0000 0.0000 0.0000 90.3003 -9.9201 8.2919 -17.4202 27.4084 -4.2790 0.0000 -0.0000 -3.4730 -12.9535 -57.0216 10.9211 7.1250 -0.0000 -0.0000 83.1284 -76.6875 -69.3591
-1.2603 17.9986 20.8187 177.8130 -1.6118 -154.4490 0.0000 0.0000 0.0000 -21.8288 -14.6956 -20.5487 0.1940 2.8366 7.8241 -0.0756 -8.0294 -3.8756 1.8727 -8.5957 -24.5386 0.0000 0.0000 0.0000 18.6505 13.1477 -21.7213 -0.2323 -3.1020 8.5627 -1.0782 1.8449 -19.0976 -1.9249 8.7079 -24.8858 -6.2712 -2.4483 -25.6501 0.1327 -2.0102 -1.9557 2.9905 -1.5135 12.3519 -1.6671 -3.5475 -0.8323 4.1080 -4.7872 4.5141 1.4883 -2.3029 1.7046 0.0000 0.0000 0.0000 -83.7385 3.6592 7.3089 7.3734 -12.5321 -0.8107 -0.0000 -0.0000 14.3838 20.3907 -8.9994 -3.3277 -7.1250 0.0000 -0.0000 -4.6853 20.4048 2.7669 0.0000 0.0000 0.0000 90.3604 -10.0377 7.7771 -17.4257 27.4156 -4.2815 0.0000 -0.0000 -2.7779 -12.4312 -56.3884 10.4026 7.1250 -0.0000 -0.0000 80.4225 -76.4842 -66.4554
-1.2649 17.9948 20.8166 177.8370 -1.5247 -154.3880 0.0000 0.0000 0.0000 -21.8119 -14.7305 -20.5927 0.1941 2.8375 7.8268 -0.0729 -7.9425 -3.8614 1.7622 -8.3520 -23.7886 0.0000 0.0000 0.0000 18.6304 13.1776 -21.8083 -0.2343 -3.1153 8.5999 -1.0786 1.9372 -19.0795 -1.8846 8.6214 -24.6181 -6.2562 -2.3757 -25.7997 0.1076 -1.9082 -1.9441 2.9864 -1.4686 12.4339 -1.5671 -3.5401 -0.9963 3.9886 -4.7782 4.8471 1.4294 -2.2909 1.8337 0.0000 0.0000 0.0000 -83.6972 3.7316 7.7386 7.4652 -12.6824 -0.8308 -0.0000 -0.0000 14.0286 20.3278 -9.1375 -3.3669 -7.1250 0.0000 -0.0000 -4.7318 20.2627 2.8097 0.0000 0.0000 0.0000 90.4270 -10.1395 7.5072 -17.4464 27.4425 -4.2910 0.0000 -0.0000 -2.3793 -12.0904 -56.2645 10.1005 7.1250 -0.0000 -0.0000 79.9122 -76.3528 -65.8081
-1.2697 17.9897 20.8153 177.8170 -1.4460 -154.3030 0.0000 0.0000 0.0000 -21.8560 -14.7204 -20.7110 0.1969 2.8576 7.8827 -0.0735 -7.9796 -3.8829 1.7859 -8.4051 -23.9514 0.0000 0.0000 0.0000 18.5596 13.1822 -21.9096 -0.2343 -3.1153 8.6000 -1.0784 2.0455 -19.0524 -1.8597 8.5674 -24.4513 -6.2439 -2.3022 -25.9745 0.0358 -1.7979 -1.9294 2.9331 -1.4195 12.5308 -1.4539 -3.5539 -1.1321 3.9720 -4.7998 5.1233 1.4011 -2.2921 1.9440 -0.0000 0.0000 0.0000 -83.6248 3.7245 8.0627 7.5213 -12.7740 -0.8431 -0.0000 -0.0000 13.8307 20.3725 -9.1510 -3.3799 -7.1250 0.0000 -0.0000 -4.6999 20.2454 2.7925 -0.0000 0.0000 0.0000 90.5287 -10.1551 7.2760 -17.4560 27.4549 -4.2954 0.0000 -0.0000 -2.2100 -11.7324 -56.1414 9.7850 7.1250 -0.0000 -0.0000 79.4210 -76.2135 -65.1715
-1.2734 17.9855 20.8136 177.8330 -1.3473 -154.2340 0.0000 0.0000 0.0000 -21.8630 -14.6600 -20.8269 0.1988 2.8708 7.9194 -0.0724 -7.9973 -3.9271 1.8298 -8.5021 -24.2498 0.0000 0.0000 0.0000 18.5273 13.2767 -21.9340 -0.2306 -3.0910 8.5323 -1.0720 2.0521 -18.9921 -1.8276 8.4973 -24.2351 -6.2274 -2.2309 -26.0813 -0.0035 -1.7049 -1.9504 2.9104 -1.3780 12.5521 -1.3879 -3.5841 -1.1053 3.9924 -4.8412 5.2061 1.3955 -2.3084 1.9662 -0.0000 0.0000 0.0000 -83.5882 3.7180 8.2938 7.5246 -12.7794 -0.8438 -0.0000 -0.0000 13.6620 20.4819 -9.1152 -3.3865 -7.1250 0.0000 -0.0000 -4.6210 20.2760 2.7421 -0.0000 0.0000 0.0000 90.6148 -10.1598 6.9844 -17.4804 27.4867 -4.3067 0.0000 -0.0000 -2.1534 -11.3023 -55.8761 9.3946 7.1250 -0.0000 -0.0000 78.3761 -76.0330 -63.9501
-1.2766 17.9795 20.8103 177.9510 -1.1963 -154.0760 0.0000 0.0000 0.0000 -21.7082 -14.6775 -20.9991 0.1981 2.8661 7.9063 -0.0614 -7.8156 -4.0416 1.8916 -8.6365 -24.6648 0.0000 0.0000 0.0000 18.5776 13.4565 -22.1071 -0.2323 -3.1022 8.5634 -1.0634 2.1082 -18.9001 -1.6962 8.2024 -23.3307 -6.1351 -2.0971 -26.3089 -0.0561 -1.5519 -2.0044 2.8487 -1.3078 12.5914 -1.0986 -3.6519 -1.0977 3.8733 -4.9323 5.3158 1.3050 -2.3470 1.9900 -0.0000 0.0000 0.0000 -83.4376 3.7392 8.7908 7.5209 -12.7733 -0.8430 -0.0000 -0.0000 13.2588 21.2574 -11.0340 -4.2582 -7.1250 0.0000 -0.0000 -4.1078 18.1800 2.6279 -0.0000 0.0000 0.0000 90.8088 -10.2808 6.5792 -17.6022 27.6448 -4.3631 0.0000 -0.0000 -2.0336 -10.2710 -56.0859 8.5520 7.1250 -0.0000 -0.0000 79.3310 -75.6754 -64.4803
-1.2779 17.9819 20.8116 178.0300 -1.2047 -154.1060 0.0000 0.0000 0.0000 -21.5916 -14.6967 -21.0041 0.2003 2.8819 7.9500 -0.0586 -7.7681 -4.0698 1.9691 -8.8013 -25.1758 0.0000 0.0000 0.0000 18.6446 13.5214 -22.0777 -0.2326 -3.1039 8.5680 -1.0642 2.0730 -18.9153 -1.5679 7.9011 -22.4140 -6.0827 -2.1118 -26.2468 -0.0102 -1.5956 -2.0153 2.8566 -1.3245 12.5499 -1.1239 -3.6170 -1.3147 3.8371 -4.8880 5.6297 1.2944 -2.3178 2.1297 -0.0000 0.0000 0.0000 -83.4880 3.7964 8.9561 7.5706 -12.8544 -0.8540 -0.0000 -0.0000 12.9752 21.4148 -11.5140 -4.4762 -7.1250 0.0000 -0.0000 -4.0117 17.6557 2.6124 -0.0000 0.0000 0.0000 90.7467 -10.3708 6.6842 -17.6763 27.7407 -4.3975 0.0000 -0.0000 -2.3601 -10.3674 -55.8775 8.6120 7.1250 -0.0000 -0.0000 78.4970 -75.6904 -63.6834
-1.2803 17.9839 20.8157 178.0650 -1.1744 -154.0430 0.0000 0.0000 0.0000 -21.5423 -14.6498 -21.1663 0.2043 2.9101 8.0286 -0.0639 -7.8524 -4.0109 2.0037 -8.8738 -25.4013 0.0000 0.0000 0.0000 18.6442 13.5781 -22.2081 -0.2361 -3.1269 8.6322 -1.0666 2.0899 -18.9339 -1.5743 7.9165 -22.4607 -6.0329 -2.0904 -26.2298 -0.0134 -1.5929 -2.0693 2.8260 -1.3210 12.4757 -1.1341 -3.6016 -1.3334 3.8478 -4.8675 5.7510 1.2995 -2.3041 2.1730 0.0000 0.0000 0.0000 -83.4998 3.8722 9.1731 7.6441 -12.9743 -0.8705 -0.0000 -0.0000 12.7682 21.2731 -11.1088 -4.2901 -7.1250 0.0000 -0.0000 -4.0988 18.0991 2.6294 0.0000 0.0000 0.0000 90.7296 -10.4283 6.7010 -17.6614 27.7215 -4.3906 0.0000 -0.0000 -2.5360 -10.3617 -55.4861 8.5678 7.1250 -0.0000 -0.0000 76.9594 -75.6422 -62.1383
-1.2847 17.9844 20.8186 178.0620 -1.1274 -153.9730 0.0000 0.0000 0.0000 -21.5715 -14.5907 -21.3023 0.2067 2.9276 8.0772 -0.0676 -7.9421 -3.9994 1.9183 -8.6938 -24.8421 0.0000 0.0000 0.0000 18.6046 13.5983 -22.3071 -0.2367 -3.1313 8.6445 -1.0574 2.0131 -18.8670 -1.6752 8.1541 -23.1831 -6.0247 -2.0810 -26.2877 -0.0178 -1.5799 -2.0664 2.8197 -1.3159 12.5085 -1.1334 -3.5876 -1.3765 3.8649 -4.8501 5.8069 1.3045 -2.2932 2.1992 -0.0000 -0.0000 0.0000 -83.5343 3.8044 9.3950 7.6997 -13.0650 -0.8830 -0.0000 -0.0000 12.5272 21.2598 -10.7008 -4.1321 -7.1250 0.0000 -0.0000 -4.0971 18.5343 2.5888 -0.0000 -0.0000 0.0000 90.7618 -10.4094 6.5860 -17.7002 27.7715 -4.4086 0.0000 -0.0000 -2.5106 -10.4351 -55.2164 8.6013 7.1250 -0.0000 -0.0000 75.8901 -75.6314 -61.0967
-1.2898 17.9845 20.8188 178.0620 -1.1499 -153.9790 0.0000 0.0000 0.0000 -21.5939 -14.6041 -21.2920 0.2073 2.9316 8.0884 -0.0671 -7.9784 -4.0452 1.8279 -8.4979 -24.2369 0.0000 0.0000 0.0000 18.6024 13.5433 -22.2788 -0.2336 -3.1107 8.5870 -1.0494 1.9091 -18.8173 -1.7496 8.3238 -23.7021 -6.0234 -2.1043 -26.3088 0.0092 -1.6019 -2.0110 2.8411 -1.3261 12.5880 -1.1716 -3.5794 -1.6629 3.8623 -4.8437 6.0549 1.3054 -2.2839 2.3336 0.0000 -0.0000 0.0000 -83.6370 3.6423 9.4241 7.7414 -13.1329 -0.8925 -0.0000 -0.0000 12.4149 21.3512 -10.6856 -4.1457 -7.1250 0.0000 -0.0000 -4.0321 18.5431 2.5468 0.0000 -0.0000 0.0000 90.7452 -10.3430 6.5245 -17.7457 27.8303 -4.4299 0.0000 -0.0000 -2.5078 -10.7805 -54.9748 8.8625 7.1250 -0.0000 -0.0000 74.8691 -75.7217 -60.2204
